<svg width="97" height="97" fill="none" xmlns="http://www.w3.org/2000/svg"><path d="M76.576 80.689c.199-.728.665-1.28 1.212-1.756 3.829-3.317 6.89-7.255 9.334-11.668a41.516 41.516 0 004.704-13.527c.534-3.298.74-6.627.522-10.005-.316-4.925-1.358-9.631-3.224-14.188-2-4.876-4.805-9.213-8.364-13.089-2.704-2.945-5.74-5.487-9.141-7.571-4.722-2.895-9.797-4.866-15.274-5.873a43.5 43.5 0 00-11.328-.568c-5.874.466-11.474 2.052-16.739 4.857-5.086 2.71-9.445 6.215-13.204 10.57-2.34 2.713-4.268 5.678-5.885 8.834-1.806 3.53-3.012 7.293-3.786 11.199-.519 2.622-.76 5.276-.817 7.923a39.475 39.475 0 00.636 7.913c.837 4.58 2.297 8.977 4.51 13.08a44.484 44.484 0 005.57 8.056 44.395 44.395 0 009.687 8.356c4.65 2.979 9.646 5.02 15.074 6.046 2.986.564 5.971 1.005 9.02.814" stroke="#000" stroke-width="2" stroke-linecap="round" stroke-linejoin="round"/><path d="M58.87 30.099c.396-.898.256-1.799-.123-2.634-.825-1.813-1.72-3.56-2.838-5.253-.973-1.476-1.955-2.976-2.994-4.42-.727-1.01-1.569-1.943-2.412-2.861-.864-.941-2.883-.988-3.825.008-1.832 1.937-3.6 3.99-4.892 6.295-.977 1.74-2.328 3.275-2.959 5.23-.352 1.09-.818 2.133-.739 3.307.043.635-.53 1.007-.582 1.649-.3 3.786.926 6.984 3.67 9.554 2.01 1.886 4.44 2.897 7.354 2.873V76.73m12.32-31.894c.364.65.484 1.342.445 2.09-.157 2.937.207 5.862.246 8.797.022 1.698 1.24 2.792 2.938 2.965 2.816.288 5.643.255 8.467.21a5.36 5.36 0 012.53.565M36.214 44.836c-.366.65-.485 1.342-.447 2.09.158 2.937-.164 5.864-.242 8.797-.044 1.692-1.24 2.786-2.942 2.967-2.743.291-5.497.242-8.248.21a6.441 6.441 0 00-2.75.563" stroke="#000" stroke-width="2" stroke-linecap="round" stroke-linejoin="round"/><path d="M58.43 61.993c4.599 4.636 12.404 4.017 16.421-1.049.936-1.18 2.016-2.442 2.513-4.005.442-1.392 1.279-2.691 1.266-4.184-.008-.954.562-1.663.697-2.53.3-1.934.601-3.86.717-5.825.063-1.09.09-2.012-.473-2.988-.48-.833-1.184-1.08-2.007-1.188-1.438-.188-2.858.156-4.286.242a13.212 13.212 0 00-3.402.656c-2.172.736-4.539.73-6.617 1.826-.833.44-1.739.755-2.277 1.573a.75.75 0 01-.358.298c-3.334 1.067-4.473 3.977-5.2 6.854-.962 3.811.013 7.349 2.895 10.209m-19.576.001c4.084-3.894 4.25-10.551.565-14.97-.799-.96-1.513-1.905-2.871-2.1-.477-.066-.534-.741-.988-.977-2.117-1.094-4.208-2.245-6.714-2.085a.479.479 0 01-.325-.11c-.842-.789-1.985-.824-2.98-.93-1.752-.185-3.492-.581-5.273-.501-1.559.071-2.662.79-3.179 2.21a2.041 2.041 0 00-.108.984c.363 2.228.314 4.51.865 6.71.018.07-.018.155.005.22.88 2.424.978 5.087 2.303 7.371.306.528.523 1.102 1.094 1.444.177.105.379.231.468.528.717 2.365 2.685 3.438 4.714 4.398 4.137 1.956 9.225 1.104 12.314-2.083m10.008-23.865c1.019-.106 1.814-.578 2.543-1.31 1.868-1.87 3.794-3.686 5.71-5.507.542-.516 1.101-1.027 1.911-1.225.974 1.06.988 2.247.776 3.648-.248 1.646-.636 3.232-1.51 4.594-2.185 3.407-5.23 5.484-9.54 5.519V14.372" stroke="#000" stroke-width="2" stroke-linecap="round" stroke-linejoin="round"/><path d="M68.547 41.866c.433 1.449.146 2.933.215 4.4.065 1.358.141 2.658.962 3.87.61.902 1.382 1.253 2.343 1.284 1.611.052 3.226.029 4.839.006.567-.007 1.115.049 1.648.228m-50.036-9.788c-.25.603-.214 1.237-.224 1.87-.024 1.503.093 3.033-.146 4.502-.305 1.864-1.44 3.23-3.258 3.201-1.576-.025-3.153.01-4.729-.013-.568-.008-1.116.048-1.649.228m19.791-21.665c.64.132 1.09.545 1.546.984 2.186 2.104 4.399 4.18 6.59 6.278.563.54 1.188.854 1.982.767m13.528 20.235c-3.666 3.666-7.384 7.283-10.972 11.023-1.378 1.436-3.513 1.436-4.891 0-3.59-3.74-7.306-7.357-10.972-11.023M74.871 72.66c.019 1.907.049 3.813.049 5.72 0 .633.118 1.197.42 1.773.2.384.446.415.783.565 2.394 1.073 4.927.423 7.381.686m-4.729-39.867l-8.468 8.358m-51.909-8.358l8.358 8.358M55.678 22.29c-1.726 1.032-2.876 2.7-4.387 3.974-.798.673-1.546 1.355-2.652 1.415M41.603 22.4c1.67 1.25 3.088 2.777 4.607 4.195.652.608 1.333 1.013 2.214 1.084M27.526 50.775l6.708 6.596m35.303-6.596l-6.709 6.596" stroke="#000" stroke-width="2" stroke-linecap="round" stroke-linejoin="round"/></svg>