<svg width="95" height="95" fill="none" xmlns="http://www.w3.org/2000/svg"><path d="M33.353 21.93l2.021.038c.064 0 .14-.023.19.003.575.302 1.235.19 1.832.38.7.224 1.41.428 2.096.691 1.659.635 3.194 1.488 4.54 2.663 1.337 1.166 2.55 2.43 3.482 3.96.44.723.855 1.462 1.185 2.229.298.7.544 1.42.736 2.157.118.445.148.91.315 1.342.052.135.09.276.115.419.202 1.24.203 2.492.132 3.736-.044.67-.143 1.335-.298 1.99-.129.564-.29 1.115-.438 1.673a10.571 10.571 0 01-1.878 3.771c-.64.83-1.335 1.615-1.974 2.447-.774 1-1.409 2.1-1.885 3.272-.29.718-.585 1.442-.76 2.185-.161.677-.459 1.336-.44 2.052a.769.769 0 01-.091.34c-.117.261-.132.526-.151.804-.033.46-.136.927-.349 1.33-.285.53-.767.781-1.398.776-1.792-.017-3.586.027-5.376-.025-.589-.017-1.17.008-1.755.018-.26.004-.523.017-.765-.11a.178.178 0 00-.192-.011c-.322.166-.679.121-1.026.121-1.78 0-3.56-.006-5.34.007-.332 0-.543-.095-.732-.38-.364-.552-.475-1.16-.578-1.796-.09-.563-.118-1.143-.357-1.684-.13-.292-.089-.633-.184-.955-.265-.902-.542-1.794-.894-2.664-.68-1.683-1.7-3.144-2.892-4.506-.973-1.113-1.882-2.284-2.406-3.694a19.613 19.613 0 01-.794-2.624c-.146-.661-.229-1.33-.339-1.991-.183-1.098-.147-2.215 0-3.314.12-.91.285-1.824.54-2.704.234-.808.517-1.61.898-2.37.572-1.157 1.208-2.269 2.009-3.29a16.85 16.85 0 014.165-3.767c.723-.477 1.49-.882 2.29-1.213.82-.328 1.648-.665 2.515-.839 1.068-.214 2.127-.526 3.24-.436.315.025.635-.02.953-.033m-7.97 38.252a1.56 1.56 0 01-.266.457c-.252.298-.326.639-.314 1.03.025.813.603 1.41 1.419 1.41h14.338a1.323 1.323 0 011.259.84c.235.566.126 1.164-.265 1.567-.285.293-.608.427-1.032.427a3098.27 3098.27 0 00-13.042-.007c-.863 0-1.487.624-1.487 1.487 0 .813.63 1.411 1.487 1.411h11.21c.986 0 1.677.875 1.45 1.83a1.304 1.304 0 01-1.22.994c-2.606.082-5.213.021-7.818.03-.48 0-.929.082-1.33.322-.203.122-.343.116-.502-.012a1.168 1.168 0 00-.573-.246" stroke="#000" stroke-width="2" stroke-linecap="round" stroke-linejoin="round"/><path d="M34.383 45.42c.011.643-.203 1.264-.174 1.907.006.127-.016.255-.016.38v12.28" stroke="#000" stroke-width="2" stroke-linecap="round" stroke-linejoin="round"/><path d="M35.145 44.81c0-.676.44-1.101.878-1.525a4.53 4.53 0 011.608-1.01c.346-.124.784-.19 1.133.062.375.27.467.66.347 1.101-.08.296-.307.472-.533.649-.353.278-.768.42-1.176.587-.402.167-.84.125-1.23.32-.226.112-.496.083-.718-.036-.277-.149-.494-.118-.69.12-.23.285-.486.3-.843.207a3.012 3.012 0 00-1.483.022c-.285.071-.358.282-.302.532.156.692.19 1.393.19 2.099-.003 4.016-.003 8.033 0 12.05m-.956-15.216c-.063-.723-.51-1.207-1.031-1.637-.448-.37-.938-.694-1.49-.865-.349-.107-.753-.165-1.1.065-.32.212-.472.531-.416.911.064.44.385.718.723.95.548.374 1.177.55 1.827.654.076.012.166.003.226.041.443.282.855.151 1.254-.098l.807.629M28.052 9.269c.006.286.05.57.133.845.147.513.172 1.062.25 1.596.013.088-.006.172.03.269.227.6.244 1.247.393 1.865.156.645.251 1.306.373 1.954.1.533.23 1.08.28 1.631.033.37.206.723.181 1.107m11.059-9.534c.143.399.1.772-.014 1.188-.103.38-.169.796-.282 1.166-.175.57-.308 1.152-.458 1.727-.25.963-.53 1.92-.766 2.888-.109.441-.175.913-.37 1.35-.174.387-.213.834-.309 1.244-.279.034-.55-.04-.813.045m25.855 19.755c-.661-.07-1.323 0-1.983-.012-1.132-.025-2.264.015-3.394-.01a54.77 54.77 0 00-3.087.024c-.306.01-.609-.095-.916-.02m-41.95 0c-.75-.048-1.497-.081-2.25.01-.607.072-1.222-.08-1.83-.057a41.19 41.19 0 01-3.356 0c-.62-.027-1.246.042-1.868.067m57.05-12.51c-1.45.674-2.901 1.343-4.348 2.023-1.147.54-2.288 1.093-3.432 1.639M7.574 23.893c.26-.078.388.163.567.258 1.201.638 2.37 1.335 3.558 2 1.092.61 2.18 1.234 3.274 1.838.13.071.279.104.418.155M59.17 52.78c-.4.026-.677-.27-.982-.436-1.52-.827-3.005-1.718-4.512-2.573-.754-.428-1.524-.829-2.287-1.242m-36.34.037a5895.217 5895.217 0 01-5.644 3.183c-.58.327-1.173.63-1.75.96-.169.095-.333.053-.5.072m14.262-31.042c-.069-.414-.405-.665-.62-.985-.801-1.174-1.642-2.321-2.47-3.477-.647-.902-1.31-1.796-1.933-2.716-.123-.18-.238-.178-.393-.182m36.209.763c.155.496-.165.816-.44 1.14-.884 1.047-1.785 2.08-2.665 3.13-.824.984-1.626 1.984-2.446 2.97a.65.65 0 00-.15.499M29.54 72.115c.035.425.211.826.5 1.14.371.404.692.832.913 1.338.29.661.738 1.176 1.447 1.411.84.28 1.657.209 2.395-.277.293-.193.534-.481.734-.788.169-.259.26-.53.227-.84m3.889-56.402c-.229-.01-.46.027-.686-.039" stroke="#000" stroke-width="2" stroke-linecap="round" stroke-linejoin="round"/><path d="M32.639 76.092v6.568a5.552 5.552 0 005.562 5.552l43.887-.078a4.221 4.221 0 004.22-4.228l-.01-6.416c.468-.298.744-.747.968-1.25a33.96 33.96 0 011.075-2.162 2.63 2.63 0 00.303-.95c.009-.082-.023-.193.047-.237.673-.438.853-1.205 1.195-1.846.94-1.758 1.815-3.546 2.711-5.325.065-.129.155-.285.131-.412-.13-.68.19-1.309.19-1.975-.007-11.998-.007-23.997 0-35.997 0-.38-.026-.748-.148-1.105a.44.44 0 01-.027-.244c.329-1.477.259-2.963-.012-4.428-.41-2.221-2.397-4.098-4.628-4.425-1.371-.2-2.76-.25-4.116.102a5.747 5.747 0 00-4.29 5.324c-.031.83-.002 1.663-.005 2.492 0 .333-.018.665.143.967.047.086.066.176.026.242-.257.428-.165.898-.166 1.352-.003 11.861-.004 23.722-.003 35.582 0 .435-.036.874.172 1.283.016.031.075.024.042.105-.25.624.09 1.144.347 1.656.998 1.995 1.97 4.002 3.069 5.937.373.66.657 1.334.95 2.02.35.82.855 1.568 1.205 2.39a1.8 1.8 0 00.443.594c.225.212.498.403.388.795" stroke="#000" stroke-width="2" stroke-linecap="round" stroke-linejoin="round"/><path d="M83.806 31.663c.154.102.138.26.138.415v26.098c0 .313-.047.632.28.83m4.393-27.101v26.86m-8.687-32.64c1.084-.063 2.168-.007 3.252-.005 1.904.006 3.808-.05 5.711-.018 1.248.022 2.493-.02 3.739-.012M79.998 64.544c.324-.023.646-.066.97-.066 3.53-.005 7.06-.006 10.592-.004.361 0 .722.004 1.073.105m-4.016 8.376c-.264-.21-.57-.28-.9-.278-.97.004-1.939.005-2.908 0a1.58 1.58 0 00-.865.244" stroke="#000" stroke-width="2" stroke-linecap="round" stroke-linejoin="round"/></svg>