<svg width="94" height="94" fill="none" xmlns="http://www.w3.org/2000/svg"><path d="M13.319 24.025c-5.615-2.355-7.764-.89-7.764 5.294 0 4.823.278 9.666-.071 14.464-.427 5.864 1.989 10.543 4.46 15.63 3.158 6.496 7.879 11.392 12.964 16.073 2.961 2.726 4.346 5.662 3.846 9.598-.103.806.104 1.652.18 2.644H43.67c0-6.172.062-12.173-.063-18.173-.02-.951-.696-2.05-1.377-2.8-5.596-6.162-11.314-12.215-16.867-18.416-1.053-1.175-2.3-1.331-3.71-1.598-1.07.976-1.974 2.297-2.687 3.757m57.879-.004l-2.223-3.431c-3.285-.998-4.778 1.598-6.142 3.17-4.264 4.913-8.76 9.602-13.19 14.352-2.19 2.35-3.406 4.79-3.22 8.147.274 4.928.07 9.883.07 14.993h17.177c-2.55-8.313 3.478-12.314 8.285-16.707 5.926-5.417 8.46-12.819 12.326-19.452.564-.968.295-1.904.302-2.838.047-6.47.025-12.94.025-19.41 0-6.184-2.149-7.65-7.763-5.294M47.904 7.085c-.94-.587-1.915-1.128-2.82-1.771-5.724-4.066-11.111-1.968-14.433 1.808-3.557 4.042-3.735 10.335.36 14.382C36.4 26.83 42.132 31.807 47.884 37.088c3.66-3.29 7.144-6.4 10.6-9.541a330.397 330.397 0 005.649-5.291c4.303-4.1 5.236-10.528.651-15.473-4.071-4.39-11.242-4.143-16.873.288" stroke="#000" stroke-width="2" stroke-linecap="round" stroke-linejoin="round"/><path d="M21.436 46.612c-.781-5.28-.359-10.594-.25-15.88.043-2.13-.252-4.227-.15-6.356.139-2.886-1.118-4.232-3.482-4.232-2.173 0-4.129 2.117-3.846 4.583.702 6.117.072 12.242.336 18.355.047 1.075-.329 2.15.653 3.208 5.253 5.645 8.894 12.6 14.503 17.967m45.172-17.645c.781-5.28.36-10.594.25-15.88-.043-2.13.252-4.227.15-6.356-.141-2.886 1.118-4.232 3.482-4.232 2.173 0 4.13 2.117 3.846 4.583-.701 6.117-.07 12.242-.336 18.355-.047 1.075.329 2.15-.653 3.208-5.253 5.645-8.893 12.6-14.503 17.967M34.67 56.846c1.155-4.194.52-8.481.427-12.702-.06-2.726-2.195-3.28-6.251-2.12m38.115 0c-4.763-1.728-6.965-.015-6.373 4.943.391 3.275-.584 6.636.55 9.879" stroke="#000" stroke-width="2" stroke-linecap="round" stroke-linejoin="round"/><path d="M27.435 49.788c1.167-3.347.674-6.81.705-10.234.016-1.765-.168-3.55.035-5.29.58-4.96-1.621-6.674-6.384-4.945m52.229 0c-4.764-1.727-6.835-.024-6.415 4.946.315 3.738.118 7.525.035 11.287-.034 1.489.245 2.867.733 4.236" stroke="#000" stroke-width="2" stroke-linecap="round" stroke-linejoin="round"/></svg>