<svg width="92" height="93" fill="none" xmlns="http://www.w3.org/2000/svg"><path d="M50.318 76.125c-.291-1.239-.216-2.407.081-3.691.652-2.82.757-5.68.406-8.62-.528-4.43-2.152-8.313-4.724-11.878-.537-.745-.824-1.989-1.4-2.313-2.695-1.534-4.707-4.058-7.658-5.178-.14-.053-.325-.053-.418-.145-1.891-1.917-4.497-1.56-6.802-2.081-3.41-.77-6.806-.1-10.175.533-.191.036-.405.178-.562.128-2.457-.781-3.994.842-5.662 2.134-3.966 3.07-7.445 6.574-9.603 11.18-1.358 2.9-2.144 5.93-2.315 9.185-.448 8.49 2.777 15.347 9.121 20.75 3.134 2.668 6.847 4.261 10.986 5.061 3.51.68 6.952.62 10.324-.14 3.596-.81 6.887-2.504 9.776-4.88 3.08-2.53 5.608-5.557 7.892-8.79.505-.716.988-1.281 1.865-1.392.877-.11 1.414-.704 1.98-1.277 4.053-4.102 8.087-8.224 12.167-12.3a3505.666 3505.666 0 0116.543-16.41c3.7-3.66 6.756-7.697 8.083-12.865.54-2.104.765-4.22.825-6.37.024-.83-.296-1.522-.848-2.121" stroke="#000" stroke-width="2" stroke-linecap="round" stroke-linejoin="round"/><path d="M71.674 41.758c1.08-.458 1.62-1.49 2.4-2.267A7689.96 7689.96 0 0087.66 25.925c.425-.424.893-.846 1.417-1.121 1.253-.658 1.86-1.668 1.54-2.985-2.36-9.697-8.154-16.362-17.83-19.032C63.96.353 55.829 2.282 49.225 8.704 38.803 18.832 28.642 29.227 18.335 39.48c-.873.87-1.206 1.864-1.396 2.988m18.953 24.04c-.133 2.016-.534 3.944-1.694 5.66-3.651 5.4-11.151 5.654-15.142.992-2.738-3.201-3.222-6.85-1.665-10.175 1.79-3.823 4.878-5.82 9.167-5.812h1.131" stroke="#000" stroke-width="2" stroke-linecap="round" stroke-linejoin="round"/><path d="M76.626 17.573c-.296.77-1.031 1.141-1.567 1.687a3053.59 3053.59 0 01-14.138 14.29 3910.583 3910.583 0 01-16.12 16.056m9.194-27.931c.162.936-.372 1.522-.982 2.129A7296.637 7296.637 0 0036.17 40.622c-.633.63-1.245 1.26-1.552 2.126m-8.909 7.212c-1.75.35-3.522.455-5.247 1.095-5.75 2.134-9.42 6.32-10.635 12.08-1.916 9.084 2.912 17.577 12.367 19.978 7.19 1.826 13.976-.873 18.213-7.42 1.384-2.139 2.167-4.492 2.439-7.063.612-5.782-1.361-10.56-5.563-14.404-2.755-2.522-6.062-3.995-9.877-4.13-.52-.019-1.037-.09-1.556-.138" stroke="#000" stroke-width="2" stroke-linecap="round" stroke-linejoin="round"/></svg>